<svg width="20" height="20" viewBox="0 0 20 20" fill="none" xmlns="http://www.w3.org/2000/svg">
<path fill-rule="evenodd" clip-rule="evenodd" d="M2.37531 15.7678C2.37531 13.8428 5.0728 12.0919 8.26864 12.0919C11.447 12.0919 14.162 13.8261 14.162 15.7503C14.162 17.6744 11.4645 18.1736 8.26864 18.1736C5.0903 18.1736 2.37531 17.6928 2.37531 15.7678Z" stroke="white" stroke-width="1.5" stroke-linecap="round" stroke-linejoin="round"/>
<path fill-rule="evenodd" clip-rule="evenodd" d="M12.0461 5.56913C12.0461 3.48246 10.3545 1.79163 8.26864 1.79163C6.18281 1.79163 4.49111 3.48246 4.49111 5.56913C4.48364 7.64746 6.16364 9.33913 8.24197 9.34663H8.26864C10.3545 9.34663 12.0461 7.65496 12.0461 5.56913Z" stroke="white" stroke-width="1.5" stroke-linecap="round" stroke-linejoin="round"/>
<path d="M17.2024 9.58337H13.631" stroke="white" stroke-width="1.5" stroke-linecap="round" stroke-linejoin="round"/>
<path d="M15.8334 8.33337L17.5 9.58337L15.8334 10.8334" stroke="white" stroke-width="1.5" stroke-linecap="round" stroke-linejoin="round"/>
</svg>
