<svg width="20" height="20" viewBox="0 0 20 20" fill="none" xmlns="http://www.w3.org/2000/svg">
<path fill-rule="evenodd" clip-rule="evenodd" d="M2.37524 15.7678C2.37524 13.8428 5.07274 12.0919 8.26858 12.0919C11.4469 12.0919 14.1619 13.8261 14.1619 15.7503C14.1619 17.6744 11.4644 18.1736 8.26858 18.1736C5.09024 18.1736 2.37524 17.6928 2.37524 15.7678Z" stroke="white" stroke-width="1.5" stroke-linecap="round" stroke-linejoin="round"/>
<path fill-rule="evenodd" clip-rule="evenodd" d="M12.046 5.56913C12.046 3.48246 10.3544 1.79163 8.26852 1.79163C6.18268 1.79163 4.49099 3.48246 4.49099 5.56913C4.48352 7.64746 6.16352 9.33913 8.24185 9.34663H8.26852C10.3544 9.34663 12.046 7.65496 12.046 5.56913Z" stroke="white" stroke-width="1.5" stroke-linecap="round" stroke-linejoin="round"/>
<path d="M17.2023 9.58337H13.6309" stroke="white" stroke-width="1.5" stroke-linecap="round" stroke-linejoin="round"/>
<path d="M15.8333 8.33337L17.4999 9.58337L15.8333 10.8334" stroke="white" stroke-width="1.5" stroke-linecap="round" stroke-linejoin="round"/>
</svg>
