<svg width="40" height="40" viewBox="0 0 40 40" fill="none" xmlns="http://www.w3.org/2000/svg">
<g filter="url(#filter0_b_137_374)">
<circle cx="19.96" cy="20.2402" r="19.44" fill="#070721" fill-opacity="0.3"/>
</g>
<g clip-path="url(#clip0_137_374)">
<path fill-rule="evenodd" clip-rule="evenodd" d="M24.6772 13.502C23.2207 13.0348 21.4603 13.4006 20.5693 14.752C20.4474 14.937 20.2423 15.0504 20.0208 15.0553C19.7992 15.0602 19.5894 14.9561 19.4593 14.7766C18.4884 13.4375 16.7557 13.0405 15.3261 13.5018L15.3256 13.502C12.636 14.3677 11.5374 17.6406 12.4324 20.4355C13.1522 22.6754 14.7264 24.3848 16.3264 25.5421C17.1238 26.1188 17.915 26.549 18.5854 26.8327C19.2781 27.1259 19.7768 27.2351 20.0058 27.2351C20.233 27.2351 20.7335 27.1237 21.4312 26.8257C22.1058 26.5376 22.9018 26.1021 23.7024 25.5216C25.3101 24.3559 26.8808 22.6474 27.5753 20.4392L27.5763 20.436C28.4703 17.6422 27.3669 14.3682 24.6772 13.502ZM19.987 13.3341C21.3627 11.9357 23.4549 11.692 25.09 12.2167L25.0907 12.2169C28.729 13.3883 29.8973 17.6099 28.8626 20.8459C28.0538 23.4159 26.2513 25.341 24.4949 26.6145C23.6133 27.2537 22.7294 27.7393 21.9614 28.0673C21.2165 28.3854 20.5117 28.5851 20.0058 28.5851C19.5022 28.5851 18.8018 28.3902 18.0593 28.076C17.2945 27.7523 16.4145 27.2719 15.5352 26.6359C13.7819 25.3678 11.9807 23.443 11.1471 20.8482L11.1469 20.8476C10.1107 17.6127 11.2711 13.3889 14.9118 12.217M19.987 13.3341C18.5929 11.9945 16.571 11.6817 14.912 12.2169Z" fill="#070721"/>
<path fill-rule="evenodd" clip-rule="evenodd" d="M22.6982 16.1787C22.7363 15.8079 23.0678 15.5381 23.4386 15.5762C24.1519 15.6495 24.7638 15.9764 25.1843 16.5082C25.6004 17.0344 25.7942 17.7157 25.7696 18.4501C25.7571 18.8227 25.4449 19.1146 25.0723 19.1021C24.6997 19.0896 24.4078 18.7774 24.4203 18.4048C24.4362 17.9324 24.3104 17.5796 24.1254 17.3455C23.9447 17.117 23.6737 16.9575 23.3007 16.9192C22.9298 16.8811 22.6601 16.5495 22.6982 16.1787Z" fill="#070721"/>
</g>
<defs>
<filter id="filter0_b_137_374" x="-12.44" y="-12.1598" width="64.8" height="64.8" filterUnits="userSpaceOnUse" color-interpolation-filters="sRGB">
<feFlood flood-opacity="0" result="BackgroundImageFix"/>
<feGaussianBlur in="BackgroundImageFix" stdDeviation="6.48"/>
<feComposite in2="SourceAlpha" operator="in" result="effect1_backgroundBlur_137_374"/>
<feBlend mode="normal" in="SourceGraphic" in2="effect1_backgroundBlur_137_374" result="shape"/>
</filter>
<clipPath id="clip0_137_374">
<rect width="21.6" height="21.6" fill="white" transform="translate(9.16003 9.44019)"/>
</clipPath>
</defs>
</svg>
