<svg width="40" height="40" viewBox="0 0 40 40" fill="none" xmlns="http://www.w3.org/2000/svg">
<g filter="url(#filter0_b_137_356)">
<circle cx="20.1201" cy="20.2402" r="19.44" fill="#070721" fill-opacity="0.3"/>
</g>
<g clip-path="url(#clip0_137_356)">
<path fill-rule="evenodd" clip-rule="evenodd" d="M24.8372 13.502C23.3807 13.0348 21.6203 13.4006 20.7293 14.752C20.6073 14.937 20.4023 15.0504 20.1808 15.0553C19.9592 15.0602 19.7494 14.9561 19.6193 14.7766C18.6484 13.4375 16.9157 13.0405 15.4861 13.5018L15.4856 13.502C12.7959 14.3677 11.6974 17.6406 12.5924 20.4355C13.3122 22.6754 14.8863 24.3848 16.4864 25.5421C17.2838 26.1188 18.075 26.549 18.7454 26.8327C19.438 27.1259 19.9368 27.2351 20.1658 27.2351C20.3929 27.2351 20.8935 27.1237 21.5912 26.8257C22.2658 26.5376 23.0618 26.1021 23.8624 25.5216C25.4701 24.3559 27.0408 22.6474 27.7353 20.4392L27.7363 20.436C28.6303 17.6422 27.5269 14.3682 24.8372 13.502ZM20.147 13.3341C21.5227 11.9357 23.6149 11.692 25.25 12.2167L25.2506 12.2169C28.8889 13.3883 30.0572 17.6099 29.0226 20.8459C28.2138 23.4159 26.4113 25.341 24.6549 26.6145C23.7733 27.2537 22.8894 27.7393 22.1214 28.0673C21.3765 28.3854 20.6717 28.5851 20.1658 28.5851C19.6621 28.5851 18.9618 28.3902 18.2192 28.076C17.4545 27.7523 16.5745 27.2719 15.6952 26.6359C13.9419 25.3678 12.1407 23.443 11.307 20.8482L11.3068 20.8476C10.2707 17.6127 11.4311 13.3889 15.0718 12.217M20.147 13.3341C18.7529 11.9945 16.731 11.6817 15.072 12.2169Z" fill="#070721"/>
<path fill-rule="evenodd" clip-rule="evenodd" d="M22.8583 16.1787C22.8964 15.8079 23.2279 15.5381 23.5987 15.5762C24.312 15.6495 24.9239 15.9764 25.3444 16.5082C25.7605 17.0344 25.9543 17.7157 25.9296 18.4501C25.9171 18.8227 25.605 19.1146 25.2324 19.1021C24.8598 19.0896 24.5679 18.7774 24.5804 18.4048C24.5963 17.9324 24.4705 17.5796 24.2855 17.3455C24.1047 17.117 23.8338 16.9575 23.4607 16.9192C23.0899 16.8811 22.8202 16.5495 22.8583 16.1787Z" fill="#070721"/>
</g>
<defs>
<filter id="filter0_b_137_356" x="-12.2799" y="-12.1598" width="64.8" height="64.8" filterUnits="userSpaceOnUse" color-interpolation-filters="sRGB">
<feFlood flood-opacity="0" result="BackgroundImageFix"/>
<feGaussianBlur in="BackgroundImageFix" stdDeviation="6.48"/>
<feComposite in2="SourceAlpha" operator="in" result="effect1_backgroundBlur_137_356"/>
<feBlend mode="normal" in="SourceGraphic" in2="effect1_backgroundBlur_137_356" result="shape"/>
</filter>
<clipPath id="clip0_137_356">
<rect width="21.6" height="21.6" fill="white" transform="translate(9.32013 9.44019)"/>
</clipPath>
</defs>
</svg>
