<svg width="40" height="40" viewBox="0 0 40 40" fill="none" xmlns="http://www.w3.org/2000/svg">
<g filter="url(#filter0_b_137_393)">
<circle cx="19.8401" cy="20.2402" r="19.44" fill="#070721" fill-opacity="0.3"/>
</g>
<g clip-path="url(#clip0_137_393)">
<path fill-rule="evenodd" clip-rule="evenodd" d="M24.5572 13.502C23.1007 13.0348 21.3404 13.4006 20.4494 14.752C20.3274 14.937 20.1224 15.0504 19.9008 15.0553C19.6792 15.0602 19.4694 14.9561 19.3393 14.7766C18.3684 13.4375 16.6357 13.0405 15.2061 13.5018L15.2056 13.502C12.516 14.3677 11.4174 17.6406 12.3124 20.4355C13.0322 22.6754 14.6064 24.3848 16.2064 25.5421C17.0038 26.1188 17.795 26.549 18.4654 26.8327C19.1581 27.1259 19.6568 27.2351 19.8858 27.2351C20.113 27.2351 20.6135 27.1237 21.3112 26.8257C21.9858 26.5376 22.7818 26.1021 23.5824 25.5216C25.1901 24.3559 26.7608 22.6474 27.4553 20.4392L27.4563 20.436C28.3503 17.6422 27.2469 14.3682 24.5572 13.502ZM19.867 13.3341C21.2427 11.9357 23.3349 11.692 24.9701 12.2167L24.9707 12.2169C28.609 13.3883 29.7773 17.6099 28.7426 20.8459C27.9338 23.4159 26.1313 25.341 24.3749 26.6145C23.4933 27.2537 22.6094 27.7393 21.8414 28.0673C21.0965 28.3854 20.3917 28.5851 19.8858 28.5851C19.3822 28.5851 18.6818 28.3902 17.9393 28.076C17.1745 27.7523 16.2945 27.2719 15.4152 26.6359C13.662 25.3678 11.8607 23.443 11.0271 20.8482L11.0269 20.8476C9.99072 17.6127 11.1511 13.3889 14.7918 12.217M19.867 13.3341C18.4729 11.9945 16.4511 11.6817 14.792 12.2169Z" fill="#070721"/>
<path fill-rule="evenodd" clip-rule="evenodd" d="M22.5782 16.1787C22.6163 15.8079 22.9478 15.5381 23.3187 15.5762C24.0319 15.6495 24.6439 15.9764 25.0644 16.5082C25.4805 17.0344 25.6743 17.7157 25.6496 18.4501C25.6371 18.8227 25.3249 19.1146 24.9524 19.1021C24.5798 19.0896 24.2879 18.7774 24.3004 18.4048C24.3162 17.9324 24.1905 17.5796 24.0054 17.3455C23.8247 17.117 23.5538 16.9575 23.1807 16.9192C22.8099 16.8811 22.5401 16.5495 22.5782 16.1787Z" fill="#070721"/>
</g>
<defs>
<filter id="filter0_b_137_393" x="-12.5599" y="-12.1598" width="64.8" height="64.8" filterUnits="userSpaceOnUse" color-interpolation-filters="sRGB">
<feFlood flood-opacity="0" result="BackgroundImageFix"/>
<feGaussianBlur in="BackgroundImageFix" stdDeviation="6.48"/>
<feComposite in2="SourceAlpha" operator="in" result="effect1_backgroundBlur_137_393"/>
<feBlend mode="normal" in="SourceGraphic" in2="effect1_backgroundBlur_137_393" result="shape"/>
</filter>
<clipPath id="clip0_137_393">
<rect width="21.6" height="21.6" fill="white" transform="translate(9.04013 9.44019)"/>
</clipPath>
</defs>
</svg>
