<svg width="40" height="40" viewBox="0 0 40 40" fill="none" xmlns="http://www.w3.org/2000/svg">
<g filter="url(#filter0_b_137_302)">
<circle cx="20.24" cy="20.2402" r="19.44" fill="#070721" fill-opacity="0.3"/>
</g>
<g clip-path="url(#clip0_137_302)">
<path fill-rule="evenodd" clip-rule="evenodd" d="M24.9571 13.502C23.5006 13.0348 21.7403 13.4006 20.8493 14.752C20.7273 14.937 20.5223 15.0504 20.3007 15.0553C20.0792 15.0602 19.8693 14.9561 19.7392 14.7766C18.7683 13.4375 17.0356 13.0405 15.606 13.5018L15.6055 13.502C12.9159 14.3677 11.8173 17.6406 12.7123 20.4355C13.4321 22.6754 15.0063 24.3848 16.6063 25.5421C17.4037 26.1188 18.1949 26.549 18.8653 26.8327C19.558 27.1259 20.0568 27.2351 20.2857 27.2351C20.5129 27.2351 21.0134 27.1237 21.7111 26.8257C22.3857 26.5376 23.1817 26.1021 23.9823 25.5216C25.59 24.3559 27.1607 22.6474 27.8552 20.4392L27.8562 20.436C28.7502 17.6422 27.6468 14.3682 24.9571 13.502ZM20.2669 13.3341C21.6426 11.9357 23.7348 11.692 25.37 12.2167L25.3706 12.2169C29.0089 13.3883 30.1772 17.6099 29.1425 20.8459C28.3337 23.4159 26.5312 25.341 24.7748 26.6145C23.8932 27.2537 23.0093 27.7393 22.2413 28.0673C21.4964 28.3854 20.7916 28.5851 20.2857 28.5851C19.7821 28.5851 19.0817 28.3902 18.3392 28.076C17.5744 27.7523 16.6944 27.2719 15.8151 26.6359C14.0619 25.3678 12.2607 23.443 11.427 20.8482L11.4268 20.8476C10.3906 17.6127 11.551 13.3889 15.1917 12.217M20.2669 13.3341C18.8728 11.9945 16.851 11.6817 15.1919 12.2169Z" fill="#070721"/>
<path fill-rule="evenodd" clip-rule="evenodd" d="M22.9782 16.1787C23.0163 15.8079 23.3478 15.5381 23.7186 15.5762C24.4319 15.6495 25.0438 15.9764 25.4643 16.5082C25.8805 17.0344 26.0742 17.7157 26.0496 18.4501C26.0371 18.8227 25.7249 19.1146 25.3523 19.1021C24.9797 19.0896 24.6878 18.7774 24.7003 18.4048C24.7162 17.9324 24.5905 17.5796 24.4054 17.3455C24.2247 17.117 23.9537 16.9575 23.5807 16.9192C23.2098 16.8811 22.9401 16.5495 22.9782 16.1787Z" fill="#070721"/>
</g>
<defs>
<filter id="filter0_b_137_302" x="-12.16" y="-12.1598" width="64.8" height="64.8" filterUnits="userSpaceOnUse" color-interpolation-filters="sRGB">
<feFlood flood-opacity="0" result="BackgroundImageFix"/>
<feGaussianBlur in="BackgroundImageFix" stdDeviation="6.48"/>
<feComposite in2="SourceAlpha" operator="in" result="effect1_backgroundBlur_137_302"/>
<feBlend mode="normal" in="SourceGraphic" in2="effect1_backgroundBlur_137_302" result="shape"/>
</filter>
<clipPath id="clip0_137_302">
<rect width="21.6" height="21.6" fill="white" transform="translate(9.44006 9.44019)"/>
</clipPath>
</defs>
</svg>
