<svg width="40" height="40" viewBox="0 0 40 40" fill="none" xmlns="http://www.w3.org/2000/svg">
<g filter="url(#filter0_b_137_338)">
<circle cx="20.4001" cy="20.2402" r="19.44" fill="#070721" fill-opacity="0.3"/>
</g>
<g clip-path="url(#clip0_137_338)">
<path fill-rule="evenodd" clip-rule="evenodd" d="M25.1172 13.502C23.6607 13.0348 21.9003 13.4006 21.0094 14.752C20.8874 14.937 20.6823 15.0504 20.4608 15.0553C20.2392 15.0602 20.0294 14.9561 19.8993 14.7766C18.9284 13.4375 17.1957 13.0405 15.7661 13.5018L15.7656 13.502C13.076 14.3677 11.9774 17.6406 12.8724 20.4355C13.5922 22.6754 15.1664 24.3848 16.7664 25.5421C17.5638 26.1188 18.355 26.549 19.0254 26.8327C19.7181 27.1259 20.2168 27.2351 20.4458 27.2351C20.673 27.2351 21.1735 27.1237 21.8712 26.8257C22.5458 26.5376 23.3418 26.1021 24.1424 25.5216C25.7501 24.3559 27.3208 22.6474 28.0153 20.4392L28.0163 20.436C28.9103 17.6422 27.8069 14.3682 25.1172 13.502ZM20.427 13.3341C21.8027 11.9357 23.8949 11.692 25.53 12.2167L25.5307 12.2169C29.169 13.3883 30.3373 17.6099 29.3026 20.8459C28.4938 23.4159 26.6913 25.341 24.9349 26.6145C24.0533 27.2537 23.1694 27.7393 22.4014 28.0673C21.6565 28.3854 20.9517 28.5851 20.4458 28.5851C19.9422 28.5851 19.2418 28.3902 18.4993 28.076C17.7345 27.7523 16.8545 27.2719 15.9752 26.6359C14.222 25.3678 12.4207 23.443 11.5871 20.8482L11.5869 20.8476C10.5507 17.6127 11.7111 13.3889 15.3518 12.217M20.427 13.3341C19.0329 11.9945 17.0111 11.6817 15.352 12.2169Z" fill="#070721"/>
<path fill-rule="evenodd" clip-rule="evenodd" d="M23.1382 16.1787C23.1763 15.8079 23.5078 15.5381 23.8787 15.5762C24.5919 15.6495 25.2039 15.9764 25.6244 16.5082C26.0405 17.0344 26.2343 17.7157 26.2096 18.4501C26.1971 18.8227 25.8849 19.1146 25.5124 19.1021C25.1398 19.0896 24.8479 18.7774 24.8604 18.4048C24.8762 17.9324 24.7505 17.5796 24.5654 17.3455C24.3847 17.117 24.1138 16.9575 23.7407 16.9192C23.3699 16.8811 23.1001 16.5495 23.1382 16.1787Z" fill="#070721"/>
</g>
<defs>
<filter id="filter0_b_137_338" x="-11.9999" y="-12.1598" width="64.8" height="64.8" filterUnits="userSpaceOnUse" color-interpolation-filters="sRGB">
<feFlood flood-opacity="0" result="BackgroundImageFix"/>
<feGaussianBlur in="BackgroundImageFix" stdDeviation="6.48"/>
<feComposite in2="SourceAlpha" operator="in" result="effect1_backgroundBlur_137_338"/>
<feBlend mode="normal" in="SourceGraphic" in2="effect1_backgroundBlur_137_338" result="shape"/>
</filter>
<clipPath id="clip0_137_338">
<rect width="21.6" height="21.6" fill="white" transform="translate(9.6001 9.44019)"/>
</clipPath>
</defs>
</svg>
