<svg width="40" height="40" viewBox="0 0 40 40" fill="none" xmlns="http://www.w3.org/2000/svg">
<g filter="url(#filter0_b_137_320)">
<circle cx="19.6801" cy="20.2402" r="19.44" fill="#070721" fill-opacity="0.3"/>
</g>
<g clip-path="url(#clip0_137_320)">
<path fill-rule="evenodd" clip-rule="evenodd" d="M24.3972 13.502C22.9407 13.0348 21.1803 13.4006 20.2893 14.752C20.1673 14.937 19.9623 15.0504 19.7408 15.0553C19.5192 15.0602 19.3094 14.9561 19.1793 14.7766C18.2084 13.4375 16.4757 13.0405 15.0461 13.5018L15.0456 13.502C12.3559 14.3677 11.2574 17.6406 12.1524 20.4355C12.8722 22.6754 14.4463 24.3848 16.0464 25.5421C16.8438 26.1188 17.635 26.549 18.3054 26.8327C18.998 27.1259 19.4968 27.2351 19.7258 27.2351C19.9529 27.2351 20.4535 27.1237 21.1512 26.8257C21.8258 26.5376 22.6218 26.1021 23.4224 25.5216C25.0301 24.3559 26.6008 22.6474 27.2953 20.4392L27.2963 20.436C28.1903 17.6422 27.0869 14.3682 24.3972 13.502ZM19.707 13.3341C21.0827 11.9357 23.1749 11.692 24.81 12.2167L24.8106 12.2169C28.4489 13.3883 29.6172 17.6099 28.5826 20.8459C27.7738 23.4159 25.9713 25.341 24.2149 26.6145C23.3333 27.2537 22.4494 27.7393 21.6814 28.0673C20.9365 28.3854 20.2317 28.5851 19.7258 28.5851C19.2221 28.5851 18.5218 28.3902 17.7792 28.076C17.0145 27.7523 16.1345 27.2719 15.2552 26.6359C13.5019 25.3678 11.7007 23.443 10.867 20.8482L10.8668 20.8476C9.83069 17.6127 10.9911 13.3889 14.6318 12.217M19.707 13.3341C18.3129 11.9945 16.291 11.6817 14.632 12.2169Z" fill="#070721"/>
<path fill-rule="evenodd" clip-rule="evenodd" d="M22.4183 16.1787C22.4564 15.8079 22.7879 15.5381 23.1587 15.5762C23.872 15.6495 24.4839 15.9764 24.9044 16.5082C25.3205 17.0344 25.5143 17.7157 25.4896 18.4501C25.4771 18.8227 25.165 19.1146 24.7924 19.1021C24.4198 19.0896 24.1279 18.7774 24.1404 18.4048C24.1563 17.9324 24.0305 17.5796 23.8455 17.3455C23.6647 17.117 23.3938 16.9575 23.0207 16.9192C22.6499 16.8811 22.3802 16.5495 22.4183 16.1787Z" fill="#070721"/>
</g>
<defs>
<filter id="filter0_b_137_320" x="-12.7199" y="-12.1598" width="64.8" height="64.8" filterUnits="userSpaceOnUse" color-interpolation-filters="sRGB">
<feFlood flood-opacity="0" result="BackgroundImageFix"/>
<feGaussianBlur in="BackgroundImageFix" stdDeviation="6.48"/>
<feComposite in2="SourceAlpha" operator="in" result="effect1_backgroundBlur_137_320"/>
<feBlend mode="normal" in="SourceGraphic" in2="effect1_backgroundBlur_137_320" result="shape"/>
</filter>
<clipPath id="clip0_137_320">
<rect width="21.6" height="21.6" fill="white" transform="translate(8.88013 9.44019)"/>
</clipPath>
</defs>
</svg>
